<svg viewBox="0 0 1100 620" xmlns="http://www.w3.org/2000/svg" font-family="Segoe UI, Arial, sans-serif">

  <!-- White background -->
  <rect width="1100" height="620" fill="#FFFFFF"/>

  <!-- ── ZONE BOXES (dashed borders) ─────────────────────── -->

  <!-- Sources zone (no border, just label) -->
  <text x="62" y="28" text-anchor="middle" font-size="14" font-weight="600" fill="#555">Sources</text>

  <!-- Bronze zone -->
  <rect x="170" y="14" width="220" height="582" rx="12" fill="none" stroke="#C8901A" stroke-width="2" stroke-dasharray="8,5"/>
  <text x="280" y="38" text-anchor="middle" font-size="15" font-weight="700" fill="#333">Bronze</text>
  <text x="280" y="54" text-anchor="middle" font-size="11" fill="#777">catalog = ops</text>
  <text x="280" y="68" text-anchor="middle" font-size="11" fill="#777">schema = bronze</text>

  <!-- Silver zone -->
  <rect x="420" y="14" width="230" height="582" rx="12" fill="none" stroke="#888" stroke-width="2" stroke-dasharray="8,5"/>
  <text x="535" y="38" text-anchor="middle" font-size="15" font-weight="700" fill="#333">Silver</text>
  <text x="535" y="54" text-anchor="middle" font-size="11" fill="#777">catalog = ops</text>
  <text x="535" y="68" text-anchor="middle" font-size="11" fill="#777">schema = silver</text>

  <!-- Gold zone -->
  <rect x="685" y="14" width="390" height="582" rx="12" fill="none" stroke="#C8901A" stroke-width="2" stroke-dasharray="8,5"/>
  <text x="880" y="38" text-anchor="middle" font-size="15" font-weight="700" fill="#333">Gold</text>
  <text x="880" y="54" text-anchor="middle" font-size="11" fill="#777">catalog = ops</text>
  <text x="880" y="68" text-anchor="middle" font-size="11" fill="#777">schema = gold</text>

  <!-- ── HELPER: rounded rect macro via reuse ─────────────── -->

  <!-- ══ SOURCE NODES ══════════════════════════════════════ -->

  <!-- ADLS Gen2 -->
  <rect x="10" y="110" width="120" height="42" rx="8" fill="#AED6F1" stroke="#5DADE2" stroke-width="1.5"/>
  <text x="70" y="128" text-anchor="middle" font-size="11" font-weight="700" fill="#1A5276">ADLS</text>
  <text x="70" y="144" text-anchor="middle" font-size="10" fill="#1A5276">Gen2 (CSV)</text>

  <!-- ADF Pipeline -->
  <rect x="10" y="270" width="120" height="42" rx="8" fill="#AED6F1" stroke="#5DADE2" stroke-width="1.5"/>
  <text x="70" y="288" text-anchor="middle" font-size="11" font-weight="700" fill="#1A5276">ADF</text>
  <text x="70" y="304" text-anchor="middle" font-size="10" fill="#1A5276">Pipeline</text>

  <!-- Fabric Notebooks -->
  <rect x="10" y="430" width="120" height="42" rx="8" fill="#AED6F1" stroke="#5DADE2" stroke-width="1.5"/>
  <text x="70" y="448" text-anchor="middle" font-size="11" font-weight="700" fill="#1A5276">Fabric</text>
  <text x="70" y="464" text-anchor="middle" font-size="10" fill="#1A5276">Notebooks</text>

  <!-- ══ BRONZE NODES ═══════════════════════════════════════ -->

  <!-- customers_raw -->
  <rect x="190" y="95" width="170" height="44" rx="6" fill="#C8901A" stroke="#A37515" stroke-width="1.5"/>
  <text x="275" y="113" text-anchor="middle" font-size="11" font-weight="700" fill="#FFF">customers_raw</text>
  <text x="275" y="129" text-anchor="middle" font-size="10" fill="#FFE0A0">7 tables · CSV · Landing</text>

  <!-- order_items_raw -->
  <rect x="190" y="165" width="170" height="44" rx="6" fill="#C8901A" stroke="#A37515" stroke-width="1.5"/>
  <text x="275" y="183" text-anchor="middle" font-size="11" font-weight="700" fill="#FFF">order_items_raw</text>
  <text x="275" y="199" text-anchor="middle" font-size="10" fill="#FFE0A0">Delta · processing_date</text>

  <!-- orders_raw -->
  <rect x="190" y="255" width="170" height="44" rx="6" fill="#C8901A" stroke="#A37515" stroke-width="1.5"/>
  <text x="275" y="273" text-anchor="middle" font-size="11" font-weight="700" fill="#FFF">orders_raw</text>
  <text x="275" y="289" text-anchor="middle" font-size="10" fill="#FFE0A0">Delta · Append mode</text>

  <!-- order_payments_raw -->
  <rect x="190" y="325" width="170" height="44" rx="6" fill="#C8901A" stroke="#A37515" stroke-width="1.5"/>
  <text x="275" y="343" text-anchor="middle" font-size="11" font-weight="700" fill="#FFF">order_payments_raw</text>
  <text x="275" y="359" text-anchor="middle" font-size="10" fill="#FFE0A0">Delta · No transforms</text>

  <!-- order_reviews_raw -->
  <rect x="190" y="395" width="170" height="44" rx="6" fill="#C8901A" stroke="#A37515" stroke-width="1.5"/>
  <text x="275" y="413" text-anchor="middle" font-size="11" font-weight="700" fill="#FFF">order_reviews_raw</text>
  <text x="275" y="429" text-anchor="middle" font-size="10" fill="#FFE0A0">multiLine · UTF-8</text>

  <!-- products_raw -->
  <rect x="190" y="465" width="170" height="44" rx="6" fill="#C8901A" stroke="#A37515" stroke-width="1.5"/>
  <text x="275" y="483" text-anchor="middle" font-size="11" font-weight="700" fill="#FFF">products_raw</text>
  <text x="275" y="499" text-anchor="middle" font-size="10" fill="#FFE0A0">Delta · Partitioned</text>

  <!-- sellers_raw -->
  <rect x="190" y="535" width="170" height="44" rx="6" fill="#C8901A" stroke="#A37515" stroke-width="1.5"/>
  <text x="275" y="553" text-anchor="middle" font-size="11" font-weight="700" fill="#FFF">sellers_raw</text>
  <text x="275" y="569" text-anchor="middle" font-size="10" fill="#FFE0A0">Delta · Raw faithful copy</text>

  <!-- ══ SILVER NODES ════════════════════════════════════════ -->

  <!-- customers_cleaned -->
  <rect x="440" y="95" width="185" height="44" rx="6" fill="#D0D0D0" stroke="#999" stroke-width="1.5"/>
  <text x="532" y="113" text-anchor="middle" font-size="11" font-weight="700" fill="#222">customers_cleaned</text>
  <text x="532" y="129" text-anchor="middle" font-size="10" fill="#555">DQ · Upsert MERGE</text>

  <!-- order_lines_cleaned -->
  <rect x="440" y="165" width="185" height="44" rx="6" fill="#D0D0D0" stroke="#999" stroke-width="1.5"/>
  <text x="532" y="183" text-anchor="middle" font-size="11" font-weight="700" fill="#222">order_lines_cleaned</text>
  <text x="532" y="199" text-anchor="middle" font-size="10" fill="#555">Qty derived · DQ flags</text>

  <!-- orders_cleaned -->
  <rect x="440" y="255" width="185" height="44" rx="6" fill="#D0D0D0" stroke="#999" stroke-width="1.5"/>
  <text x="532" y="273" text-anchor="middle" font-size="11" font-weight="700" fill="#222">orders_cleaned</text>
  <text x="532" y="289" text-anchor="middle" font-size="10" fill="#555">20+ cleaning fns · Types cast</text>

  <!-- payments_cleaned -->
  <rect x="440" y="325" width="185" height="44" rx="6" fill="#D0D0D0" stroke="#999" stroke-width="1.5"/>
  <text x="532" y="343" text-anchor="middle" font-size="11" font-weight="700" fill="#222">payments_cleaned</text>
  <text x="532" y="359" text-anchor="middle" font-size="10" fill="#555">Standardised · Nulls handled</text>

  <!-- reviews_cleaned -->
  <rect x="440" y="395" width="185" height="44" rx="6" fill="#D0D0D0" stroke="#999" stroke-width="1.5"/>
  <text x="532" y="413" text-anchor="middle" font-size="11" font-weight="700" fill="#222">reviews_cleaned</text>
  <text x="532" y="429" text-anchor="middle" font-size="10" fill="#555">Score validated · Title case</text>

  <!-- products_cleaned -->
  <rect x="440" y="465" width="185" height="44" rx="6" fill="#D0D0D0" stroke="#999" stroke-width="1.5"/>
  <text x="532" y="483" text-anchor="middle" font-size="11" font-weight="700" fill="#222">products_cleaned</text>
  <text x="532" y="499" text-anchor="middle" font-size="10" fill="#555">Category mapped · Types</text>

  <!-- sellers_cleaned -->
  <rect x="440" y="535" width="185" height="44" rx="6" fill="#D0D0D0" stroke="#999" stroke-width="1.5"/>
  <text x="532" y="553" text-anchor="middle" font-size="11" font-weight="700" fill="#222">sellers_cleaned</text>
  <text x="532" y="569" text-anchor="middle" font-size="10" fill="#555">City · State · Zip validated</text>

  <!-- ══ GOLD NODES ══════════════════════════════════════════ -->

  <!-- dim_customers -->
  <rect x="710" y="95" width="165" height="44" rx="6" fill="#C8901A" stroke="#A37515" stroke-width="1.5"/>
  <text x="792" y="113" text-anchor="middle" font-size="11" font-weight="700" fill="#FFF">dim_customers</text>
  <text x="792" y="129" text-anchor="middle" font-size="10" fill="#FFE0A0">Hash surrogate key</text>

  <!-- dim_products -->
  <rect x="710" y="185" width="165" height="44" rx="6" fill="#C8901A" stroke="#A37515" stroke-width="1.5"/>
  <text x="792" y="203" text-anchor="middle" font-size="11" font-weight="700" fill="#FFF">dim_products</text>
  <text x="792" y="219" text-anchor="middle" font-size="10" fill="#FFE0A0">Hash surrogate key</text>

  <!-- dim_sellers -->
  <rect x="710" y="275" width="165" height="44" rx="6" fill="#C8901A" stroke="#A37515" stroke-width="1.5"/>
  <text x="792" y="293" text-anchor="middle" font-size="11" font-weight="700" fill="#FFF">dim_sellers</text>
  <text x="792" y="309" text-anchor="middle" font-size="10" fill="#FFE0A0">Hash surrogate key</text>

  <!-- fact_orders -->
  <rect x="710" y="365" width="165" height="44" rx="6" fill="#C8901A" stroke="#A37515" stroke-width="1.5"/>
  <text x="792" y="383" text-anchor="middle" font-size="11" font-weight="700" fill="#FFF">fact_orders</text>
  <text x="792" y="399" text-anchor="middle" font-size="10" fill="#FFE0A0">Business metrics · SLA cols</text>

  <!-- fact_order_lines -->
  <rect x="710" y="455" width="165" height="44" rx="6" fill="#C8901A" stroke="#A37515" stroke-width="1.5"/>
  <text x="792" y="473" text-anchor="middle" font-size="11" font-weight="700" fill="#FFF">fact_order_lines</text>
  <text x="792" y="489" text-anchor="middle" font-size="10" fill="#FFE0A0">Qty · Revenue · Freight</text>

  <!-- Power BI (far right gold output) -->
  <rect x="905" y="270" width="155" height="54" rx="8" fill="#C8901A" stroke="#A37515" stroke-width="1.5"/>
  <text x="982" y="291" text-anchor="middle" font-size="11" font-weight="700" fill="#FFF">Power BI Report</text>
  <text x="982" y="307" text-anchor="middle" font-size="9.5" fill="#FFE0A0">Executive · Sales</text>
  <text x="982" y="320" text-anchor="middle" font-size="9.5" fill="#FFE0A0">Order &amp; Shipment</text>

  <!-- ══ ARROWS: Sources → Bronze ═══════════════════════════ -->

  <!-- ADLS → customers_raw -->
  <line x1="130" y1="125" x2="188" y2="117" stroke="#5DADE2" stroke-width="1.8" marker-end="url(#arr)"/>
  <!-- ADLS → order_items_raw -->
  <line x1="130" y1="131" x2="188" y2="180" stroke="#5DADE2" stroke-width="1.8" marker-end="url(#arr)"/>

  <!-- ADF → orders_raw -->
  <line x1="130" y1="284" x2="188" y2="277" stroke="#5DADE2" stroke-width="1.8" marker-end="url(#arr)"/>
  <!-- ADF → order_payments_raw -->
  <line x1="130" y1="291" x2="188" y2="340" stroke="#5DADE2" stroke-width="1.8" marker-end="url(#arr)"/>

  <!-- Notebooks → order_reviews_raw -->
  <line x1="130" y1="444" x2="188" y2="417" stroke="#5DADE2" stroke-width="1.8" marker-end="url(#arr)"/>
  <!-- Notebooks → products_raw -->
  <line x1="130" y1="451" x2="188" y2="480" stroke="#5DADE2" stroke-width="1.8" marker-end="url(#arr)"/>
  <!-- Notebooks → sellers_raw -->
  <line x1="130" y1="458" x2="188" y2="550" stroke="#5DADE2" stroke-width="1.8" marker-end="url(#arr)"/>

  <!-- ══ ARROWS: Bronze → Silver ════════════════════════════ -->
  <line x1="360" y1="117" x2="438" y2="117" stroke="#888" stroke-width="1.8" marker-end="url(#arr2)"/>
  <line x1="360" y1="187" x2="438" y2="187" stroke="#888" stroke-width="1.8" marker-end="url(#arr2)"/>
  <line x1="360" y1="277" x2="438" y2="277" stroke="#888" stroke-width="1.8" marker-end="url(#arr2)"/>
  <line x1="360" y1="347" x2="438" y2="347" stroke="#888" stroke-width="1.8" marker-end="url(#arr2)"/>
  <line x1="360" y1="417" x2="438" y2="417" stroke="#888" stroke-width="1.8" marker-end="url(#arr2)"/>
  <line x1="360" y1="487" x2="438" y2="487" stroke="#888" stroke-width="1.8" marker-end="url(#arr2)"/>
  <line x1="360" y1="557" x2="438" y2="557" stroke="#888" stroke-width="1.8" marker-end="url(#arr2)"/>

  <!-- ══ ARROWS: Silver → Gold ══════════════════════════════ -->

  <!-- customers_cleaned → dim_customers -->
  <line x1="625" y1="117" x2="708" y2="117" stroke="#C8901A" stroke-width="1.8" marker-end="url(#arr3)"/>

  <!-- products_cleaned → dim_products -->
  <line x1="625" y1="487" x2="680" y2="487" stroke="#C8901A" stroke-width="1.8"/>
  <line x1="680" y1="487" x2="680" y2="207" stroke="#C8901A" stroke-width="1.8"/>
  <line x1="680" y1="207" x2="708" y2="207" stroke="#C8901A" stroke-width="1.8" marker-end="url(#arr3)"/>

  <!-- sellers_cleaned → dim_sellers -->
  <line x1="625" y1="557" x2="672" y2="557" stroke="#C8901A" stroke-width="1.8"/>
  <line x1="672" y1="557" x2="672" y2="297" stroke="#C8901A" stroke-width="1.8"/>
  <line x1="672" y1="297" x2="708" y2="297" stroke="#C8901A" stroke-width="1.8" marker-end="url(#arr3)"/>

  <!-- orders_cleaned → fact_orders -->
  <line x1="625" y1="277" x2="660" y2="277" stroke="#C8901A" stroke-width="1.8"/>
  <line x1="660" y1="277" x2="660" y2="387" stroke="#C8901A" stroke-width="1.8"/>
  <line x1="660" y1="387" x2="708" y2="387" stroke="#C8901A" stroke-width="1.8" marker-end="url(#arr3)"/>

  <!-- payments_cleaned → fact_orders -->
  <line x1="625" y1="347" x2="650" y2="347" stroke="#C8901A" stroke-width="1.8"/>
  <line x1="650" y1="347" x2="650" y2="393" stroke="#C8901A" stroke-width="1.8"/>
  <line x1="650" y1="393" x2="708" y2="393" stroke="#C8901A" stroke-width="1.8" marker-end="url(#arr3)"/>

  <!-- reviews_cleaned → fact_orders -->
  <line x1="625" y1="417" x2="645" y2="417" stroke="#C8901A" stroke-width="1.8"/>
  <line x1="645" y1="417" x2="645" y2="399" stroke="#C8901A" stroke-width="1.8"/>
  <line x1="645" y1="399" x2="708" y2="399" stroke="#C8901A" stroke-width="1.8" marker-end="url(#arr3)"/>

  <!-- order_lines_cleaned → fact_order_lines -->
  <line x1="625" y1="187" x2="665" y2="187" stroke="#C8901A" stroke-width="1.8"/>
  <line x1="665" y1="187" x2="665" y2="477" stroke="#C8901A" stroke-width="1.8"/>
  <line x1="665" y1="477" x2="708" y2="477" stroke="#C8901A" stroke-width="1.8" marker-end="url(#arr3)"/>

  <!-- ══ ARROWS: Gold → Power BI ════════════════════════════ -->
  <line x1="875" y1="117" x2="940" y2="278" stroke="#C8901A" stroke-width="1.5" marker-end="url(#arr3)"/>
  <line x1="875" y1="207" x2="938" y2="282" stroke="#C8901A" stroke-width="1.5" marker-end="url(#arr3)"/>
  <line x1="875" y1="297" x2="905" y2="293" stroke="#C8901A" stroke-width="1.5" marker-end="url(#arr3)"/>
  <line x1="875" y1="387" x2="937" y2="308" stroke="#C8901A" stroke-width="1.5" marker-end="url(#arr3)"/>
  <line x1="875" y1="477" x2="939" y2="316" stroke="#C8901A" stroke-width="1.5" marker-end="url(#arr3)"/>

  <!-- ══ ARROW MARKERS ══════════════════════════════════════ -->
  <defs>
    <marker id="arr" markerWidth="9" markerHeight="7" refX="8" refY="3.5" orient="auto">
      <polygon points="0 0, 9 3.5, 0 7" fill="#5DADE2"/>
    </marker>
    <marker id="arr2" markerWidth="9" markerHeight="7" refX="8" refY="3.5" orient="auto">
      <polygon points="0 0, 9 3.5, 0 7" fill="#888"/>
    </marker>
    <marker id="arr3" markerWidth="9" markerHeight="7" refX="8" refY="3.5" orient="auto">
      <polygon points="0 0, 9 3.5, 0 7" fill="#C8901A"/>
    </marker>
  </defs>

  <!-- ══ FOOTER ═════════════════════════════════════════════ -->
  <line x1="10" y1="600" x2="1090" y2="600" stroke="#E0E0E0" stroke-width="1"/>
  <text x="550" y="616" text-anchor="middle" font-size="10" fill="#999">Olist E-Commerce Data Engineering Platform  |  Medallion Architecture  |  Microsoft Fabric + ADLS Gen2 + Power BI  |  Solomon Yakubu  2026</text>

</svg>
